<svg xmlns="http://www.w3.org/2000/svg" xmlns:xlink="http://www.w3.org/1999/xlink" width="1512.254" height="157.28" viewBox="0 0 1512.254 157.28">
  <defs>
    <style>
      .cls-1 {
        fill-rule: evenodd;
        fill: url(#linear-gradient);
      }
    </style>
    <linearGradient id="linear-gradient" x1="0.156" y1="1164.95" x2="1512.41" y2="1164.95" gradientUnits="userSpaceOnUse">
      <stop offset="0" stop-color="#1f64bf"/>
      <stop offset="0.538" stop-color="#1f64bf"/>
      <stop offset="0.546" stop-color="#595959"/>
      <stop offset="1" stop-color="#595959"/>
    </linearGradient>
  </defs>
  <path id="BRIEFLY_Macro_SVG" data-name="BRIEFLY Macro SVG" class="cls-1" d="M63.8,1240.42q27.886-.21,42.955-11.64t15.068-33.66q0-13.02-7.253-22.01t-19.847-11.96a35.417,35.417,0,0,0,17.2-12.65,33.359,33.359,0,0,0,6.185-19.95q0-20.73-15.4-31.48t-45.2-10.74H0.15v154.09H63.8Zm1.012-67.1q23.277,0.315,23.277,21.49,0,9.42-6.69,14.76t-18.61,5.34h-28.9v-41.59H64.808Zm-30.923-61.28H57.5q13.942,0,20.409,4.61t6.466,15.08q0,18.735-25.526,19.15H33.885v-38.84Zm199.937,128.38H270.03v-1.48l-35.421-62.97q14.728-6.24,21.983-16.78t7.253-26.3q0-22.215-15.743-34.39t-44.754-12.17H142.514v154.09h33.734v-56.41h26.875Zm-57.573-128.38h27.1q13.6,0,20.184,6.25t6.579,17.14q0,10.695-6.972,16.78t-19.679,6.08H176.248v-46.25Zm144.5-25.71H287.014v154.09h33.734V1086.33Zm125.159,62.44h-64.77v-36.73h75.79v-25.71H347.4v154.09H457.152v-25.51H381.137v-41.27h64.77v-24.87Zm124.934,3.07h-64.77v-39.8h72.866v-25.71h-106.6v154.09h33.734v-62.97h64.77v-25.61Zm56.791-65.51H593.9v154.09H699.261v-25.51H627.632V1086.33Zm77.593,0h-37l53.75,98.21v55.88h34.3v-55.88l53.75-98.21H773.144l-34.072,69.42Zm325.635,3.91a57.6,57.6,0,0,1-3.38,7.3,126.584,126.584,0,0,1-6.41,11.12l-62,94.52-17.378-112.94H887.781l-1.687,6.99a47,47,0,0,1,9.165,1.48,16.137,16.137,0,0,1,7.928,4.34,12.34,12.34,0,0,1,2.363,3.86,15.486,15.486,0,0,1,.9,5.66,27.223,27.223,0,0,1-.283,3.87c-0.19,1.3-.471,2.77-0.847,4.39l-19.153,77.89q-3.269,13.875-6.417,20.32-3.149,6.465-7.646,9.31a29.192,29.192,0,0,1-9.783,3.6q-5.286.96-10.57,1.48l-1.8,6.99h64.563l1.8-6.99a86.714,86.714,0,0,1-10.233-2.32q-6.523-1.8-8.546-4.03a10.552,10.552,0,0,1-2.249-4.07,19.953,19.953,0,0,1-.787-5.98,53.382,53.382,0,0,1,.9-8.57q0.9-5.3,2.254-10.9l22.658-92.29h1.153l20.019,132.72h5.338l86.965-130.07h1.27l-27.68,111.86a13.337,13.337,0,0,1-3.2,6.46,22.085,22.085,0,0,1-6.356,4.65q-2.475,1.17-8.546,1.75t-10.121.79l-1.8,6.99h70.322l1.8-6.99a57.182,57.182,0,0,1-8.04-1.05c-3.41-.64-5.64-1.27-6.69-1.91a8.939,8.939,0,0,1-3.37-3.12,7.714,7.714,0,0,1-1.01-3.97,15.275,15.275,0,0,1,.11-1.69,11.8,11.8,0,0,1,.34-1.9l27.04-109.29a21.761,21.761,0,0,1,2.81-6.39,11.034,11.034,0,0,1,6.3-4.34,85.141,85.141,0,0,1,15.85-2.54l1.69-6.99h-53.65Zm119.93,147.53q4.725,4.455,12.84,4.45a37.868,37.868,0,0,0,12.06-1.69q4.95-1.695,15.1-5.51l1.69-6.77a38.471,38.471,0,0,1-6.09,1.37,40.359,40.359,0,0,1-6.08.64q-6.42,0-9.12-2.12t-2.7-8.16a38.813,38.813,0,0,1,.95-6.94q0.96-4.71,1.86-8l17.13-68.34-1.36-1.58-20.63,4.97a46.044,46.044,0,0,0-11.41-4.55,56.716,56.716,0,0,0-15.22-2.01,55.524,55.524,0,0,0-24.5,5.77,67.822,67.822,0,0,0-20.57,15.2,75.486,75.486,0,0,0-14.27,22.25,65.812,65.812,0,0,0-5.17,25.53q0,19.065,9.27,30.09t25.55,11.01a31.365,31.365,0,0,0,11.23-1.96,58.5,58.5,0,0,0,9.54-4.6,53.956,53.956,0,0,0,8.03-5.56c2.28-1.95,4.25-3.55,5.9-4.82h0.78A16.418,16.418,0,0,0,1150.79,1237.77Zm-3.39-21.29q-8.64,8.37-15.54,11.71a30.248,30.248,0,0,1-13.19,3.34,21.028,21.028,0,0,1-10.21-2.22,15.011,15.011,0,0,1-6.17-6.26,28.133,28.133,0,0,1-3.04-9.11,77.4,77.4,0,0,1,2.93-34.65,69.2,69.2,0,0,1,9.57-19.49,53.2,53.2,0,0,1,13.94-13.67,28.823,28.823,0,0,1,15.98-5.09,26.658,26.658,0,0,1,9.9,1.59,15.585,15.585,0,0,1,6.19,4.24,13.868,13.868,0,0,1,3.26,5.93,27.969,27.969,0,0,1,.79,6.68Zm125.31,18.49a69.991,69.991,0,0,0,21.09-19.95l-6.42-4.45a67.086,67.086,0,0,1-16.28,15.56,34.978,34.978,0,0,1-19.43,5.51q-12.165,0-19.32-8.84t-7.15-23.87q0-24.33,11.08-41.11t26.37-16.78a29.926,29.926,0,0,1,8.88,1.32q4.275,1.32,5.51,4.17-1.44,3.585-3.87,9.44t-2.43,9.23a8.562,8.562,0,0,0,3.04,6.33q3.03,2.85,9.11,2.85,7.3,0,10.96-5.5a22.6,22.6,0,0,0,3.66-12.81q0-9.735-8.38-16.14t-24.46-6.4a57.709,57.709,0,0,0-26.37,5.98,59.91,59.91,0,0,0-19.62,15.42,71.392,71.392,0,0,0-12.09,21.56,75.016,75.016,0,0,0-4.33,25.37q0,19.905,11.42,30.72,11.4,10.8,31.09,10.8A51.532,51.532,0,0,0,1272.71,1234.97Zm127.97-92.6a13.871,13.871,0,0,0-3.65-5.14,14.049,14.049,0,0,0-5.74-2.86,28.731,28.731,0,0,0-6.97-.84,26.823,26.823,0,0,0-14.45,4.34q-6.915,4.35-20.3,15.26h-0.68q0-9.225-3.82-13.83t-12.82-4.61a46.071,46.071,0,0,0-11.58,1.8,121.459,121.459,0,0,0-15.51,5.5l-1.69,6.78c1.42-.35,3.41-0.8,5.96-1.32a32.082,32.082,0,0,1,6.29-.8c4.27,0,7.11.67,8.54,2.02s2.13,3.99,2.13,7.94a40.732,40.732,0,0,1-1.06,7.52c-0.72,3.39-1.26,5.94-1.63,7.63l-16.41,68.66h20.98l18.12-75.85a86.709,86.709,0,0,1,11.83-10.71,60.561,60.561,0,0,1,9.93-6.04,38.666,38.666,0,0,1,7.46-2.7,23.4,23.4,0,0,1,4.44-.69q-1.8,4.02-3.49,8.1a19.49,19.49,0,0,0-1.68,7.35,8.573,8.573,0,0,0,3.03,6.35c2.03,1.91,5.06,2.86,9.11,2.86a12.844,12.844,0,0,0,6.91-1.54,15.935,15.935,0,0,0,4.45-4.39,17.174,17.174,0,0,0,2.58-5.87,26.64,26.64,0,0,0,.9-6.51A23.234,23.234,0,0,0,1400.68,1142.37Zm100.42,2.65q-11.3-11.49-31.31-11.49a64.895,64.895,0,0,0-47.79,20.55,71.843,71.843,0,0,0-13.27,21.4,69.118,69.118,0,0,0-4.95,26.27q0,19.17,11.64,30.51t30.3,11.33q16.08,0,28.28-5.87a66.394,66.394,0,0,0,33.91-37.56,73.609,73.609,0,0,0,4.49-25Q1512.4,1156.515,1501.1,1145.02Zm-14.22,49.69a79.05,79.05,0,0,1-7.42,20.39,45.61,45.61,0,0,1-12.6,15.05,28.471,28.471,0,0,1-17.76,5.93q-11.25,0-16.82-7.79t-5.56-22.94a112.764,112.764,0,0,1,2.13-20.81,78.439,78.439,0,0,1,6.75-20.51q5.955-12.18,14.23-17.58a31.53,31.53,0,0,1,17.59-5.41q10.695,0,16.37,7.52t5.67,22.57A107.365,107.365,0,0,1,1486.88,1194.71Z" transform="translate(-0.156 -1086.31)"/>
</svg>
