<?xml version="1.0" standalone="no"?>
<!DOCTYPE svg PUBLIC "-//W3C//DTD SVG 20010904//EN"
 "http://www.w3.org/TR/2001/REC-SVG-20010904/DTD/svg10.dtd">
<svg version="1.0" xmlns="http://www.w3.org/2000/svg"
 width="500.000000pt" height="500.000000pt" viewBox="0 0 500.000000 500.000000"
 preserveAspectRatio="xMidYMid meet">
<metadata>
Created by potrace 1.14, written by Peter Selinger 2001-2017
</metadata>
<g transform="translate(0.000000,500.000000) scale(0.100000,-0.100000)"
fill="#000000" stroke="none">
<path d="M2 2500 c0 -997 2 -1089 17 -1092 29 -7 954 -1 1038 6 45 4 123 18
175 32 265 70 420 214 474 445 13 56 12 235 -2 289 -41 157 -145 269 -298 326
l-59 21 64 34 c111 60 202 166 235 278 31 103 24 259 -17 371 -56 155 -216
279 -434 335 -130 34 -204 38 -696 40 l-497 2 0 -1087z m920 716 c189 -22 278
-121 266 -297 -8 -113 -72 -187 -193 -225 -37 -12 -110 -17 -282 -21 l-233 -4
-1 38 c-2 184 0 503 4 510 6 9 351 9 439 -1z m83 -870 c17 -3 40 -8 53 -10 30
-6 92 -45 115 -71 45 -52 79 -162 70 -226 -2 -13 -5 -35 -7 -49 -4 -30 -30
-89 -48 -110 -43 -51 -131 -95 -213 -107 -22 -3 -142 -6 -268 -7 l-227 -1 -1
40 c0 50 0 515 0 535 1 13 33 15 249 14 136 -1 261 -4 277 -8z"/>
<path d="M2211 3493 c-6 -21 -11 -43 -11 -48 0 -6 32 -16 71 -23 173 -30 236
-118 204 -287 -7 -36 -99 -416 -120 -495 -14 -51 -83 -336 -90 -370 -19 -91
-111 -434 -131 -490 -65 -180 -148 -244 -347 -265 -37 -4 -71 -13 -76 -19 -6
-7 -13 -30 -16 -51 l-7 -40 454 0 453 0 12 40 c13 42 17 72 8 63 -9 -9 -208
51 -235 70 -42 32 -61 76 -63 144 -1 97 11 166 88 478 29 117 81 328 100 410
46 193 175 703 179 707 10 11 14 0 20 -62 4 -33 9 -67 11 -75 2 -8 11 -62 20
-120 8 -58 17 -116 19 -130 3 -14 7 -41 10 -60 14 -99 36 -247 40 -265 3 -18
15 -100 21 -150 7 -51 16 -111 20 -125 2 -8 7 -37 10 -65 3 -27 10 -75 15
-105 5 -30 12 -73 14 -95 3 -23 12 -83 20 -135 8 -52 17 -113 21 -135 3 -22 9
-65 15 -95 5 -30 11 -73 14 -95 5 -41 16 -108 21 -135 2 -8 4 -18 4 -22 1 -5
18 -8 39 -8 l37 0 613 920 c517 776 632 942 632 917 0 -1 -5 -18 -10 -37 -6
-19 -13 -51 -16 -70 -3 -19 -8 -38 -11 -42 -2 -5 -6 -16 -8 -25 -1 -10 -35
-148 -75 -308 -39 -159 -119 -481 -176 -714 -70 -283 -112 -434 -126 -453 -28
-40 -93 -86 -137 -97 -39 -11 -111 -20 -179 -23 -50 -2 -59 -11 -67 -63 l-7
-40 489 2 c268 0 491 1 495 2 10 1 30 80 23 91 -3 6 -21 10 -38 10 -47 1 -144
26 -173 45 -30 19 -52 67 -49 104 2 24 103 444 125 521 11 39 67 267 74 302 3
13 17 70 31 128 15 58 28 112 30 120 2 8 33 133 69 277 66 264 86 322 125 357
25 23 127 52 216 61 71 8 72 9 89 78 l6 27 -377 0 -378 0 -47 -93 c-41 -80
-172 -285 -623 -972 -43 -66 -139 -212 -214 -325 l-135 -205 -12 80 c-6 44
-15 100 -19 125 -3 25 -13 86 -20 135 -8 50 -17 108 -20 130 -3 22 -10 65 -15
95 -13 77 -18 108 -25 160 -8 61 -14 100 -20 130 -3 14 -7 42 -10 63 -12 90
-16 115 -25 167 -5 30 -12 72 -15 93 -10 77 -16 114 -30 202 -8 50 -17 108
-20 130 -3 22 -8 50 -10 63 l-5 22 -380 0 -379 0 -10 -37z"/>
</g>
</svg>
