<svg xmlns="http://www.w3.org/2000/svg" xmlns:xlink="http://www.w3.org/1999/xlink" width="833.03" height="375.281" viewBox="0 0 833.03 375.281">
  <defs>
    <style>
      .cls-1 {
        fill-rule: evenodd;
        fill: url(#linear-gradient);
      }
    </style>
    <linearGradient id="linear-gradient" x1="1563.105" y1="675.562" x2="1563.105" y2="300.281" gradientUnits="userSpaceOnUse">
      <stop offset="0" stop-color="#595959"/>
      <stop offset="0.496" stop-color="#595959"/>
      <stop offset="0.501" stop-color="#1f64bf"/>
      <stop offset="1" stop-color="#1f64bf"/>
    </linearGradient>
  </defs>
  <path id="BRIEFLY_Macro_SVG" data-name="BRIEFLY Macro SVG" class="cls-1" d="M1233.39,454.381q27.885-.211,42.95-11.642t15.07-33.655q0-13.017-7.25-22.013t-19.85-11.959a35.5,35.5,0,0,0,17.21-12.647,33.367,33.367,0,0,0,6.18-19.95q0-20.742-15.4-31.485-15.42-10.741-45.21-10.742h-57.35V454.381h63.65Zm1.01-67.1q23.28,0.317,23.28,21.484,0,9.42-6.69,14.764t-18.61,5.344h-28.9V387.283h30.92Zm-30.92-61.278h23.61q13.95,0,20.41,4.6t6.47,15.081q0,18.732-25.53,19.156h-24.96V326.005Zm199.93,128.376h36.21V452.9l-35.42-62.971q14.73-6.243,21.99-16.774,7.245-10.53,7.25-26.3,0-22.224-15.74-34.4t-44.76-12.17h-60.83V454.381h33.73V397.972h26.88Zm-57.57-128.376h27.1q13.605,0,20.19,6.244,6.57,6.246,6.57,17.145,0,10.692-6.97,16.775t-19.68,6.085h-27.21V326.005Zm144.5-25.717h-33.73V454.381h33.73V300.288Zm125.16,62.441h-64.77V326.005h75.79V300.288H1517V454.381h109.74V428.875h-76.01V387.6h64.77V362.729Zm124.93,3.069h-64.77V326.005h72.87V300.288h-106.6V454.381h33.73V391.41h64.77V365.8Zm56.79-65.51h-33.73V454.381h105.36V428.875h-71.63V300.288Zm77.6,0h-37l53.75,98.213v55.88h34.3V398.5l53.75-98.213h-36.88l-34.07,69.426ZM1327.48,522.22a57.032,57.032,0,0,1-3.37,7.3,126.4,126.4,0,0,1-6.42,11.112l-62,94.524L1238.31,522.22h-53.9l-1.69,6.985a47.3,47.3,0,0,1,9.16,1.482,16.115,16.115,0,0,1,7.93,4.339,12.4,12.4,0,0,1,2.36,3.863,15.475,15.475,0,0,1,.91,5.662,26.8,26.8,0,0,1-.29,3.863q-0.285,1.959-.84,4.392L1182.79,630.7q-3.255,13.866-6.41,20.32t-7.65,9.314a29.444,29.444,0,0,1-9.78,3.6q-5.295.952-10.57,1.482l-1.8,6.985h64.56l1.8-6.985a87.355,87.355,0,0,1-10.23-2.329q-6.525-1.8-8.55-4.021a10.8,10.8,0,0,1-2.25-4.075,20.122,20.122,0,0,1-.78-5.98,53.532,53.532,0,0,1,.9-8.572q0.9-5.291,2.25-10.9l22.66-92.287h1.15l20.02,132.715h5.34l86.96-130.069h1.28L1304.01,651.76a13.437,13.437,0,0,1-3.21,6.456,22.1,22.1,0,0,1-6.35,4.656q-2.475,1.167-8.55,1.747t-10.12.794l-1.8,6.985h70.33l1.8-6.985a58.223,58.223,0,0,1-8.04-1.059q-5.115-.952-6.69-1.905a8.994,8.994,0,0,1-3.38-3.122,7.814,7.814,0,0,1-1.01-3.969c0-.423.04-0.987,0.11-1.693a13.058,13.058,0,0,1,.34-1.895l27.04-109.289a22.149,22.149,0,0,1,2.81-6.4,11.119,11.119,0,0,1,6.3-4.339,67.373,67.373,0,0,1,7.54-1.587,65.223,65.223,0,0,1,8.32-.953l1.68-6.985h-53.65Zm119.93,147.528q4.725,4.447,12.85,4.449a37.57,37.57,0,0,0,12.05-1.694q4.95-1.691,15.1-5.5l1.69-6.773a38.2,38.2,0,0,1-6.08,1.376,41.271,41.271,0,0,1-6.09.635q-6.42,0-9.12-2.119t-2.7-8.159a38.963,38.963,0,0,1,.96-6.939q0.945-4.714,1.85-8l17.13-68.338-1.35-1.59-20.64,4.98a45.671,45.671,0,0,0-11.41-4.555,56.622,56.622,0,0,0-15.22-2.012,55.574,55.574,0,0,0-24.5,5.774,67.716,67.716,0,0,0-20.56,15.2,75.028,75.028,0,0,0-14.27,22.246,65.654,65.654,0,0,0-5.17,25.531q0,19.069,9.26,30.086t25.55,11.017a31.391,31.391,0,0,0,11.23-1.96,58.632,58.632,0,0,0,9.55-4.607,53.987,53.987,0,0,0,8.02-5.561c2.29-1.941,4.25-3.549,5.9-4.82h0.79A16.412,16.412,0,0,0,1447.41,669.748Zm-3.38-21.287q-8.655,8.371-15.55,11.709a30.292,30.292,0,0,1-13.18,3.338,21.022,21.022,0,0,1-10.22-2.225,15.039,15.039,0,0,1-6.17-6.252,27.926,27.926,0,0,1-3.03-9.112,73.32,73.32,0,0,1-.79-11.444,74.639,74.639,0,0,1,3.72-23.205,69.244,69.244,0,0,1,9.56-19.5,53.2,53.2,0,0,1,13.95-13.667,28.788,28.788,0,0,1,15.97-5.087,26.628,26.628,0,0,1,9.9,1.589,15.543,15.543,0,0,1,6.19,4.239,13.759,13.759,0,0,1,3.26,5.934,27.428,27.428,0,0,1,.79,6.675Zm125.31,18.486A69.807,69.807,0,0,0,1590.42,647l-6.42-4.445a66.967,66.967,0,0,1-16.28,15.557,34.948,34.948,0,0,1-19.42,5.5q-12.165,0-19.32-8.837t-7.15-23.865q0-24.34,11.07-41.116t26.37-16.775a29.878,29.878,0,0,1,8.88,1.32q4.275,1.318,5.51,4.165-1.425,3.59-3.86,9.444t-2.43,9.231a8.543,8.543,0,0,0,3.03,6.33c2.03,1.9,5.06,2.848,9.11,2.848q7.305,0,10.97-5.5a22.653,22.653,0,0,0,3.65-12.806q0-9.735-8.38-16.139t-24.45-6.4a57.683,57.683,0,0,0-26.37,5.986A60.114,60.114,0,0,0,1515.3,586.9a71.269,71.269,0,0,0-12.08,21.559,74.816,74.816,0,0,0-4.33,25.372q0,19.915,11.41,30.721t31.09,10.8A51.578,51.578,0,0,0,1569.34,666.947Zm127.97-92.6a13.118,13.118,0,0,0-9.4-7.99,28.478,28.478,0,0,0-6.97-.847,26.785,26.785,0,0,0-14.45,4.344q-6.915,4.344-20.3,15.253h-0.67q0-9.217-3.82-13.824t-12.82-4.609a45.979,45.979,0,0,0-11.58,1.8,120.931,120.931,0,0,0-15.52,5.5l-1.69,6.773c1.43-.352,3.41-0.794,5.96-1.323a32.171,32.171,0,0,1,6.29-.794q6.4,0,8.54,2.014c1.42,1.343,2.14,3.991,2.14,7.946a41.051,41.051,0,0,1-1.07,7.523c-0.71,3.39-1.26,5.933-1.63,7.628l-16.4,68.658h20.97l18.12-75.853a86.169,86.169,0,0,1,11.83-10.7,60.392,60.392,0,0,1,9.93-6.043,38.793,38.793,0,0,1,7.46-2.7,23.459,23.459,0,0,1,4.44-.689q-1.8,4.023-3.48,8.1a19.4,19.4,0,0,0-1.69,7.355,8.56,8.56,0,0,0,3.04,6.35c2.02,1.905,5.06,2.858,9.1,2.858a12.941,12.941,0,0,0,6.92-1.535,16.148,16.148,0,0,0,4.44-4.392,16.981,16.981,0,0,0,2.59-5.873,26.62,26.62,0,0,0,.9-6.509A23.493,23.493,0,0,0,1697.31,574.343ZM1797.73,577q-11.31-11.495-31.32-11.494a64.925,64.925,0,0,0-47.79,20.551,72.092,72.092,0,0,0-13.27,21.4,69.13,69.13,0,0,0-4.95,26.273q0,19.173,11.64,30.509t30.31,11.335q16.08,0,28.28-5.879a66.318,66.318,0,0,0,33.9-37.555,73.388,73.388,0,0,0,4.5-25Q1809.03,588.494,1797.73,577Zm-14.23,49.684a78.7,78.7,0,0,1-7.42,20.4,45.435,45.435,0,0,1-12.59,15.045,28.486,28.486,0,0,1-17.77,5.933q-11.25,0-16.81-7.787t-5.57-22.939a112.018,112.018,0,0,1,2.14-20.818,77.7,77.7,0,0,1,6.75-20.5q5.955-12.184,14.22-17.587a31.6,31.6,0,0,1,17.6-5.4q10.68,0,16.36,7.523t5.68,22.567A106.714,106.714,0,0,1,1783.5,626.684Z" transform="translate(-1146.59 -300.281)"/>
</svg>
